<svg width="240" height="240" viewBox="0 0 240 240" fill="none" xmlns="http://www.w3.org/2000/svg">
<rect width="240" height="240" rx="28" fill="#090B0C"/>
<path d="M86.2891 153.24C86.2891 156.693 86.0605 159.639 85.6035 162.076C85.1973 164.514 84.6133 166.494 83.8516 168.018C83.0898 169.541 82.1504 170.658 81.0332 171.369C79.9668 172.08 78.7988 172.436 77.5293 172.436C76.5645 172.436 75.498 172.105 74.3301 171.445C73.1621 170.785 72.0449 169.973 70.9785 169.008C69.9629 168.043 69.0996 167.053 68.3887 166.037C67.7285 165.021 67.3984 164.133 67.3984 163.371C67.3984 162.863 67.4492 162.533 67.5508 162.381C67.7031 162.279 67.8809 162.229 68.084 162.229C68.3379 162.279 68.6172 162.355 68.9219 162.457C69.2773 162.559 69.6582 162.609 70.0645 162.609C71.4863 162.609 72.502 161.721 73.1113 159.943C73.7715 158.115 74.1016 155.221 74.1016 151.26V65.1094C69.2773 65.5156 64.6309 66.3789 60.1621 67.6992C55.6934 68.9688 51.7578 70.8984 48.3555 73.4883C44.9531 76.0781 42.2363 79.4551 40.2051 83.6191C38.1738 87.7324 37.1582 92.8105 37.1582 98.8535C37.1582 101.545 37.4121 103.982 37.9199 106.166C38.4785 108.299 39.1895 110.229 40.0527 111.955C40.916 113.682 41.8555 115.205 42.8711 116.525C43.9375 117.846 44.9785 119.014 45.9941 120.029C46.8574 119.775 47.4668 119.877 47.8223 120.334C48.1777 120.791 48.3555 121.426 48.3555 122.238C48.3555 123.254 48.127 124.32 47.6699 125.438C47.2637 126.504 46.7051 127.494 45.9941 128.408C45.2832 129.271 44.4707 130.008 43.5566 130.617C42.6934 131.176 41.8047 131.455 40.8906 131.455C40.4844 131.455 40.0781 131.404 39.6719 131.303C39.3164 131.201 38.9355 130.973 38.5293 130.617C37.4121 129.805 36.0664 128.484 34.4922 126.656C32.918 124.777 31.4199 122.467 29.998 119.725C28.5762 116.982 27.3574 113.859 26.3418 110.355C25.3262 106.801 24.8184 102.967 24.8184 98.8535C24.8184 91.3379 26.2148 84.7109 29.0078 78.9727C31.8008 73.2344 35.6855 68.4355 40.6621 64.5762C45.6387 60.666 51.5293 57.7207 58.334 55.7402C65.1895 53.7598 72.6797 52.7695 80.8047 52.7695C82.6836 52.7695 84.9434 52.7949 87.584 52.8457C90.2754 52.8457 92.9414 52.8711 95.582 52.9219C98.2227 52.9727 100.584 53.0234 102.666 53.0742C104.799 53.0742 106.246 53.0742 107.008 53.0742C107.668 53.0742 108.201 53.0234 108.607 52.9219C109.064 52.7695 109.42 52.6172 109.674 52.4648C109.979 52.3125 110.207 52.1855 110.359 52.084C110.512 51.9316 110.639 51.8555 110.74 51.8555C110.994 51.8555 111.223 52.0332 111.426 52.3887C111.68 52.6934 111.883 53.0996 112.035 53.6074C112.238 54.0645 112.391 54.5977 112.492 55.207C112.594 55.8164 112.645 56.4258 112.645 57.0352C112.645 57.9492 112.518 58.9141 112.264 59.9297C112.01 60.8945 111.629 61.7832 111.121 62.5957C110.613 63.3574 109.979 63.9922 109.217 64.5C108.455 65.0078 107.566 65.2617 106.551 65.2617C105.992 65.2617 104.951 65.2617 103.428 65.2617C101.955 65.2109 100.254 65.1602 98.3242 65.1094C96.3945 65.0586 94.3633 65.0078 92.2305 64.957C90.0977 64.9062 88.1172 64.8555 86.2891 64.8047V153.24ZM119.424 115.84C119.982 114.773 120.516 113.352 121.023 111.574C121.582 109.746 122.09 107.74 122.547 105.557C123.055 103.373 123.512 101.088 123.918 98.7012C124.324 96.3145 124.68 93.9785 124.984 91.6934C125.289 89.4082 125.518 87.2754 125.67 85.2949C125.873 83.2637 125.975 81.5371 125.975 80.1152C125.975 74.9355 125.594 71.1523 124.832 68.7656C124.07 66.3281 123.055 65.1094 121.785 65.1094C121.379 65.1094 121.023 65.3125 120.719 65.7188C120.414 66.125 120.16 66.6582 119.957 67.3184C119.754 67.9277 119.602 68.6133 119.5 69.375C119.449 70.0859 119.424 70.7461 119.424 71.3555V115.84ZM141.59 139.377C141.895 137.854 142.352 136.762 142.961 136.102C143.621 135.391 144.307 135.01 145.018 134.959C145.779 134.857 146.541 135.035 147.303 135.492C148.064 135.898 148.725 136.457 149.283 137.168C149.842 137.879 150.248 138.691 150.502 139.605C150.807 140.469 150.857 141.332 150.654 142.195C149.943 144.277 148.928 146.715 147.607 149.508C146.287 152.301 144.611 154.941 142.58 157.43C140.549 159.918 138.162 162.025 135.42 163.752C132.678 165.479 129.529 166.342 125.975 166.342C122.979 166.342 120.338 165.834 118.053 164.818C115.768 163.854 113.838 162.482 112.264 160.705C110.74 158.877 109.572 156.719 108.76 154.23C107.998 151.691 107.617 148.873 107.617 145.775V74.7832C107.617 71.8887 107.973 69.2227 108.684 66.7852C109.445 64.2969 110.461 62.1895 111.73 60.4629C113.051 58.6855 114.574 57.3145 116.301 56.3496C118.027 55.334 119.855 54.8262 121.785 54.8262C124.07 54.8262 126 55.2578 127.574 56.1211C129.148 56.9336 130.443 58.0254 131.459 59.3965C132.475 60.7676 133.262 62.3418 133.82 64.1191C134.43 65.8965 134.861 67.7246 135.115 69.6035C135.369 71.4316 135.521 73.2598 135.572 75.0879C135.623 76.8652 135.648 78.4902 135.648 79.9629C135.648 83.7715 135.293 87.7832 134.582 91.998C133.871 96.1621 132.957 100.275 131.84 104.338C130.773 108.4 129.58 112.311 128.26 116.068C126.99 119.775 125.746 123.076 124.527 125.971C123.359 128.865 122.293 131.227 121.328 133.055C120.414 134.883 119.779 135.949 119.424 136.254V145.318C119.424 148.467 120.084 151.057 121.404 153.088C122.725 155.068 124.832 156.059 127.727 156.059C129.504 156.059 131.154 155.525 132.678 154.459C134.252 153.342 135.623 151.971 136.791 150.346C138.01 148.67 139.025 146.867 139.838 144.938C140.65 142.957 141.234 141.104 141.59 139.377ZM150.273 142.805C149.766 144.43 148.953 145.369 147.836 145.623C146.77 145.877 145.703 145.699 144.637 145.09C143.57 144.43 142.707 143.49 142.047 142.271C141.387 141.053 141.234 139.783 141.59 138.463C141.844 137.498 142.123 136.279 142.428 134.807C142.732 133.283 143.037 131.633 143.342 129.855C143.646 128.078 143.926 126.199 144.18 124.219C144.434 122.238 144.662 120.309 144.865 118.43C145.119 116.5 145.297 114.672 145.398 112.945C145.551 111.168 145.627 109.619 145.627 108.299C145.627 105.557 146.338 103.627 147.76 102.51C149.182 101.393 151.543 100.834 154.844 100.834C155.453 100.834 156.113 100.91 156.824 101.062C157.586 101.164 158.348 101.393 159.109 101.748C159.871 102.053 160.582 102.484 161.242 103.043C161.953 103.551 162.562 104.211 163.07 105.023C164.949 108.07 166.727 111.219 168.402 114.469C170.078 117.668 171.881 121.35 173.811 125.514C176.502 121.4 178.863 117.566 180.895 114.012C182.977 110.457 184.678 107.41 185.998 104.871C186.709 103.5 187.395 102.459 188.055 101.748C188.766 101.037 189.553 100.682 190.416 100.682C191.178 100.682 191.939 100.936 192.701 101.443C193.514 101.951 194.225 102.611 194.834 103.424C195.494 104.236 196.002 105.125 196.357 106.09C196.764 107.004 196.967 107.918 196.967 108.832C196.967 109.848 196.738 110.609 196.281 111.117L178.686 136.254C180.158 139.402 181.529 142.246 182.799 144.785C184.119 147.324 185.414 149.482 186.684 151.26C187.953 152.986 189.223 154.332 190.492 155.297C191.762 156.211 193.133 156.668 194.605 156.668C196.18 156.668 197.525 156.084 198.643 154.916C199.811 153.748 200.775 152.301 201.537 150.574C202.35 148.797 203.01 146.893 203.518 144.861C204.076 142.83 204.533 140.951 204.889 139.225C205.193 137.6 205.701 136.432 206.412 135.721C207.123 134.959 207.859 134.578 208.621 134.578C209.23 134.578 209.865 134.781 210.525 135.188C211.186 135.543 211.77 136.025 212.277 136.635C212.836 137.244 213.268 137.93 213.572 138.691C213.928 139.453 214.105 140.215 214.105 140.977C214.105 141.078 214.105 141.205 214.105 141.357C214.105 141.51 214.055 141.738 213.953 142.043C213.293 144.633 212.43 147.35 211.363 150.193C210.297 153.037 208.926 155.652 207.25 158.039C205.625 160.426 203.645 162.406 201.309 163.98C199.023 165.555 196.307 166.342 193.158 166.342C190.822 166.342 188.689 165.986 186.76 165.275C184.83 164.615 183.002 163.523 181.275 162C179.549 160.426 177.873 158.395 176.248 155.906C174.674 153.418 173.049 150.396 171.373 146.842L160.861 161.695C159.795 163.422 158.703 164.615 157.586 165.275C156.52 165.986 155.275 166.342 153.854 166.342C152.939 166.342 152 166.215 151.035 165.961C150.121 165.707 149.258 165.352 148.445 164.895C147.684 164.438 147.049 163.904 146.541 163.295C146.033 162.686 145.779 162 145.779 161.238C145.779 160.73 145.881 160.35 146.084 160.096C146.338 159.842 146.719 159.537 147.227 159.182C147.785 158.826 148.471 158.293 149.283 157.582C150.146 156.871 151.213 155.805 152.482 154.383C154.92 151.539 157.307 148.594 159.643 145.547C162.029 142.5 164.314 139.402 166.498 136.254C164.873 132.496 163.146 128.865 161.318 125.361C159.541 121.807 157.586 118.201 155.453 114.545C155.352 116.271 155.148 118.379 154.844 120.867C154.539 123.305 154.133 125.844 153.625 128.484C153.168 131.125 152.635 133.715 152.025 136.254C151.467 138.742 150.883 140.926 150.273 142.805Z" fill="#EA580C"/>
</svg>
